<?xml version="1.0" standalone="no"?>
<!DOCTYPE svg PUBLIC "-//W3C//DTD SVG 20010904//EN"
 "http://www.w3.org/TR/2001/REC-SVG-20010904/DTD/svg10.dtd">
<svg version="1.0" xmlns="http://www.w3.org/2000/svg"
 width="700.000000pt" height="700.000000pt" viewBox="0 0 700.000000 700.000000"
 preserveAspectRatio="xMidYMid meet">
<metadata>
Created by potrace 1.11, written by Peter Selinger 2001-2013
</metadata>
<g transform="translate(0.000000,700.000000) scale(0.100000,-0.100000)"
fill="#000000" stroke="none">
<path d="M3472 6370 c-17 -21 -108 -131 -202 -246 -94 -115 -184 -225 -200
-244 -16 -19 -84 -102 -152 -185 -67 -82 -131 -159 -140 -169 -40 -44 -35 -55
51 -138 44 -43 81 -82 81 -86 -1 -4 -131 -115 -291 -247 l-289 -240 32 -28
c46 -41 212 -147 282 -181 l59 -29 -74 -70 c-94 -88 -306 -287 -381 -358 l-58
-54 73 -61 c85 -72 220 -165 288 -200 27 -13 49 -30 49 -37 0 -7 -15 -25 -32
-41 -37 -32 -109 -99 -313 -290 -76 -72 -152 -143 -168 -158 -16 -15 -27 -31
-25 -36 10 -28 251 -209 353 -266 l50 -29 -65 -61 c-36 -35 -96 -92 -135 -128
-38 -36 -90 -84 -115 -108 -25 -23 -99 -92 -165 -153 -65 -62 -140 -131 -165
-155 l-45 -42 21 -18 c12 -9 46 -38 75 -63 197 -169 428 -308 679 -409 84 -33
216 -80 245 -86 6 -1 45 -11 87 -23 73 -20 240 -52 283 -55 11 0 22 -6 25 -13
3 -7 5 -300 5 -653 -1 -440 2 -640 10 -641 12 -1 575 -1 591 0 8 1 10 189 10
646 -1 638 -1 646 19 650 20 4 49 8 130 21 22 3 72 12 110 21 39 8 78 16 88
18 73 16 266 80 367 122 225 94 477 246 630 379 14 12 36 31 50 43 l25 20 -90
87 c-81 78 -476 460 -561 542 -19 18 -34 35 -34 37 0 3 22 16 49 29 94 48 351
236 351 257 0 4 -6 14 -14 21 -7 7 -118 114 -246 238 -128 124 -246 238 -262
254 l-28 29 54 28 c79 39 212 128 295 196 l72 58 -103 99 c-340 325 -408 395
-396 403 7 4 35 18 62 31 77 36 254 149 294 187 2 2 -88 82 -200 178 -213 184
-212 183 -303 262 -32 28 -62 53 -67 56 -6 4 29 44 77 90 85 82 86 84 68 104
-10 11 -37 45 -60 75 -22 30 -50 66 -62 80 -29 36 -207 260 -427 536 l-191
241 -31 -37z"/>
</g>
</svg>
